<svg width="31" height="31" viewBox="0 0 31 31" fill="none" xmlns="http://www.w3.org/2000/svg">
<g clip-path="url(#clip0_32_215)">
<path d="M28.4119 0.953613H2.55645C1.67113 0.954145 0.953436 1.67219 0.953613 2.55787V28.4133C0.954145 29.2986 1.67219 30.0163 2.55787 30.0161H16.4782V18.7771H12.7035V14.378H16.4782V11.1406C16.4782 7.38625 18.7702 5.34279 22.1192 5.34279C23.7233 5.34279 25.1017 5.46235 25.5035 5.51574V9.43964H23.1941C21.372 9.43964 21.0192 10.3054 21.0192 11.5762V14.378H25.3758L24.8081 18.7771H21.0192V30.0161H28.4119C29.2977 30.0163 30.0159 29.2984 30.0161 28.4126C30.0161 28.4124 30.0161 28.4122 30.0161 28.4119V2.55645C30.0158 1.67113 29.2975 0.953436 28.4119 0.953613Z" fill="black"/>
</g>
<defs>
<clipPath id="clip0_32_215">
<rect width="31" height="31" fill="white"/>
</clipPath>
</defs>
</svg>
