<svg width="32" height="33" viewBox="0 0 32 33" fill="none" xmlns="http://www.w3.org/2000/svg">
<path d="M4.6225 1.67578C2.42267 1.67578 0.984375 3.16544 0.984375 5.12339C0.984375 7.03811 2.37982 8.57025 4.53809 8.57025H4.57983C6.82269 8.57025 8.21851 7.03811 8.21851 5.12339C8.17658 3.16544 6.82269 1.67578 4.6225 1.67578Z" fill="black"/>
<path d="M1.36426 11.2944H7.79529V31.2471H1.36426V11.2944Z" fill="black"/>
<path d="M23.5809 10.8262C20.1116 10.8262 17.7852 14.1881 17.7852 14.1881V11.2945H11.354V31.2471H17.7849V20.1048C17.7849 19.5083 17.8268 18.9127 17.9967 18.4861C18.4616 17.295 19.5196 16.061 21.2963 16.061C23.6234 16.061 24.5541 17.8908 24.5541 20.5731V31.2471H30.9846V19.8066C30.9846 13.678 27.8117 10.8262 23.5809 10.8262V10.8262Z" fill="black"/>
</svg>
