<svg width="47" height="47" viewBox="0 0 47 47" fill="none" xmlns="http://www.w3.org/2000/svg">
<path d="M29.5541 40.8303C39.1466 40.8303 46.9228 33.054 46.9228 23.4615C46.9228 13.869 39.1466 6.09277 29.5541 6.09277C19.9616 6.09277 12.1853 13.869 12.1853 23.4615C12.1853 33.054 19.9616 40.8303 29.5541 40.8303Z" fill="#07D800"/>
<path fill-rule="evenodd" clip-rule="evenodd" d="M37.9127 15.3146C35.8328 13.2348 33.0623 12.0889 30.1191 12.0811C24.0444 12.0811 19.0998 17.0256 19.0998 23.0925C19.0998 25.0311 19.61 26.9304 20.5675 28.6022L19.0056 34.308L24.8449 32.7776C26.4539 33.6566 28.2669 34.1197 30.1113 34.1197H30.1191C36.1939 34.1197 41.1384 29.1751 41.1384 23.1082C41.1306 20.165 39.9925 17.4023 37.9127 15.3146ZM30.1191 32.2674C28.4709 32.2674 26.862 31.8279 25.4571 30.9881L25.1196 30.7919L21.6506 31.7023L22.5767 28.3275L22.3569 27.9821C21.4387 26.5223 20.9599 24.8427 20.9599 23.1082C20.9599 18.0616 25.0725 13.9568 30.1191 13.9568C32.5678 13.9568 34.8675 14.9144 36.5941 16.641C38.3208 18.3677 39.2783 20.6752 39.2705 23.1161C39.2705 28.1548 35.1657 32.2674 30.1191 32.2674ZM35.1422 25.4078C34.8675 25.2666 33.5097 24.6073 33.2585 24.5131C33.0074 24.4189 32.819 24.3718 32.6385 24.6544C32.458 24.9291 31.9243 25.5491 31.7673 25.7296C31.6103 25.9101 31.4455 25.9337 31.1708 25.8003C30.8961 25.659 30.0092 25.3686 28.9575 24.4346C28.1413 23.7047 27.584 22.8021 27.4271 22.5274C27.2701 22.2527 27.4114 22.1036 27.5448 21.9623C27.6704 21.8368 27.8195 21.6405 27.9608 21.4836C28.102 21.3266 28.1413 21.2089 28.2355 21.0205C28.3296 20.84 28.2826 20.6752 28.2119 20.5418C28.1413 20.4005 27.5919 19.0505 27.3643 18.5011C27.1445 17.9674 26.9169 18.0381 26.7442 18.0302C26.5873 18.0224 26.3989 18.0224 26.2184 18.0224C26.0379 18.0224 25.7396 18.093 25.4806 18.3677C25.2295 18.6424 24.5153 19.3095 24.5153 20.6673C24.5153 22.0251 25.5042 23.328 25.6376 23.5163C25.7789 23.6969 27.5762 26.4831 30.3389 27.6682C30.9981 27.9507 31.5083 28.1234 31.9086 28.249C32.5678 28.4609 33.1722 28.4295 33.6431 28.3589C34.1689 28.2804 35.2756 27.6917 35.5032 27.0482C35.7308 26.4046 35.7308 25.8552 35.6602 25.7375C35.5974 25.6119 35.4169 25.5491 35.1422 25.4078Z" fill="white"/>
</svg>
